<?xml version="1.0" encoding="UTF-8" standalone="no"?>
<!DOCTYPE svg PUBLIC "-//W3C//DTD SVG 1.1//EN"
 "http://www.w3.org/Graphics/SVG/1.1/DTD/svg11.dtd">
<!-- Generated by graphviz version 2.38.0 (20140413.2041)
 -->
<!-- Title: TECU Pages: 1 -->
<svg width="784pt" height="507pt"
 viewBox="0.00 0.00 783.50 507.00" xmlns="http://www.w3.org/2000/svg" xmlns:xlink="http://www.w3.org/1999/xlink">
<g id="graph0" class="graph" transform="scale(1 1) rotate(0) translate(4 503)">
<title>TECU</title>
<polygon fill="white" stroke="none" points="-4,4 -4,-503 779.5,-503 779.5,4 -4,4"/>
<!-- SemiGroup -->
<g id="node1" class="node"><title>SemiGroup</title>
<polygon fill="none" stroke="black" points="80.5,-452.5 80.5,-498.5 196.5,-498.5 196.5,-452.5 80.5,-452.5"/>
<text text-anchor="middle" x="138.5" y="-483.3" font-family="dubai" font-size="14.00">SemiGroup</text>
<polyline fill="none" stroke="black" points="80.5,-475.5 196.5,-475.5 "/>
<text text-anchor="middle" x="138.5" y="-460.3" font-family="dubai" font-size="14.00">(&lt;&gt;) :: a → a → a</text>
</g>
<!-- Monoid -->
<g id="node2" class="node"><title>Monoid</title>
<polygon fill="none" stroke="black" points="66,-339.5 66,-415.5 211,-415.5 211,-339.5 66,-339.5"/>
<text text-anchor="middle" x="138.5" y="-400.3" font-family="dubai" font-size="14.00">Monoid</text>
<polyline fill="none" stroke="black" points="66,-392.5 211,-392.5 "/>
<text text-anchor="middle" x="138.5" y="-377.3" font-family="dubai" font-size="14.00">mempty :: a</text>
<text text-anchor="middle" x="138.5" y="-362.3" font-family="dubai" font-size="14.00">mappend :: a → a → a</text>
<text text-anchor="middle" x="138.5" y="-347.3" font-family="dubai" font-size="14.00">mconcat :: [a] → a</text>
</g>
<!-- SemiGroup&#45;&gt;Monoid -->
<g id="edge1" class="edge"><title>SemiGroup&#45;&gt;Monoid</title>
<path fill="none" stroke="black" d="M138.5,-452.234C138.5,-444.347 138.5,-435.142 138.5,-425.964"/>
<polygon fill="black" stroke="black" points="142,-425.685 138.5,-415.685 135,-425.685 142,-425.685"/>
</g>
<!-- Foldable -->
<g id="node3" class="node"><title>Foldable</title>
<polygon fill="none" stroke="black" points="0,-226.5 0,-302.5 277,-302.5 277,-226.5 0,-226.5"/>
<text text-anchor="middle" x="138.5" y="-287.3" font-family="dubai" font-size="14.00">Foldable</text>
<polyline fill="none" stroke="black" points="0,-279.5 277,-279.5 "/>
<text text-anchor="middle" x="138.5" y="-264.3" font-family="dubai" font-size="14.00">fold :: Monoid m =&gt; t m → m</text>
<text text-anchor="middle" x="138.5" y="-249.3" font-family="dubai" font-size="14.00">foldMap :: Monoid m =&gt; (a → m) → t a → m</text>
<text text-anchor="middle" x="138.5" y="-234.3" font-family="dubai" font-size="14.00">foldr :: (a → b → b) → b → t a → b</text>
</g>
<!-- Monoid&#45;&gt;Foldable -->
<g id="edge9" class="edge"><title>Monoid&#45;&gt;Foldable</title>
<path fill="none" stroke="grey" stroke-dasharray="5,2" d="M138.5,-339.23C138.5,-330.81 138.5,-321.76 138.5,-312.984"/>
<polygon fill="grey" stroke="grey" points="142,-312.861 138.5,-302.861 135,-312.861 142,-312.861"/>
</g>
<!-- Traversable -->
<g id="node4" class="node"><title>Traversable</title>
<polygon fill="none" stroke="black" points="9,-98.5 9,-189.5 328,-189.5 328,-98.5 9,-98.5"/>
<text text-anchor="middle" x="168.5" y="-174.3" font-family="dubai" font-size="14.00">Traversable</text>
<polyline fill="none" stroke="black" points="9,-166.5 328,-166.5 "/>
<text text-anchor="middle" x="168.5" y="-151.3" font-family="dubai" font-size="14.00">traverse :: Applicative f =&gt; (a → f b) → t a → f (t b)</text>
<text text-anchor="middle" x="168.5" y="-136.3" font-family="dubai" font-size="14.00">sequenceA :: Applicative f =&gt; t (f a) → f (t a)</text>
<text text-anchor="middle" x="168.5" y="-121.3" font-family="dubai" font-size="14.00">mapM :: Monad m =&gt; (a → m b) → t a → m (t b)</text>
<text text-anchor="middle" x="168.5" y="-106.3" font-family="dubai" font-size="14.00">sequence :: Monad m =&gt; t (m a) → m (t a)</text>
</g>
<!-- Foldable&#45;&gt;Traversable -->
<g id="edge2" class="edge"><title>Foldable&#45;&gt;Traversable</title>
<path fill="none" stroke="black" d="M147.91,-226.331C150.08,-217.757 152.433,-208.464 154.746,-199.328"/>
<polygon fill="black" stroke="black" points="158.168,-200.071 157.23,-189.518 151.382,-198.353 158.168,-200.071"/>
</g>
<!-- Functor -->
<g id="node5" class="node"><title>Functor</title>
<polygon fill="none" stroke="black" points="277.5,-347 277.5,-408 463.5,-408 463.5,-347 277.5,-347"/>
<text text-anchor="middle" x="370.5" y="-392.8" font-family="dubai" font-size="14.00">Functor</text>
<polyline fill="none" stroke="black" points="277.5,-385 463.5,-385 "/>
<text text-anchor="middle" x="370.5" y="-369.8" font-family="dubai" font-size="14.00">void :: Functor f =&gt; f a → f ()</text>
<text text-anchor="middle" x="370.5" y="-354.8" font-family="dubai" font-size="14.00">fmap :: (a → b) → f a → f b</text>
</g>
<!-- Functor&#45;&gt;Traversable -->
<g id="edge3" class="edge"><title>Functor&#45;&gt;Traversable</title>
<path fill="none" stroke="black" d="M351.079,-346.831C342.631,-333.585 332.79,-317.681 324.5,-303 305.638,-269.596 310.71,-254.915 285.5,-226 276.002,-215.106 264.736,-204.962 253.005,-195.792"/>
<polygon fill="black" stroke="black" points="254.911,-192.846 244.825,-189.603 250.688,-198.428 254.911,-192.846"/>
</g>
<!-- Applicative -->
<g id="node6" class="node"><title>Applicative</title>
<polygon fill="none" stroke="black" points="334,-226.5 334,-302.5 503,-302.5 503,-226.5 334,-226.5"/>
<text text-anchor="middle" x="418.5" y="-287.3" font-family="dubai" font-size="14.00">Applicative</text>
<polyline fill="none" stroke="black" points="334,-279.5 503,-279.5 "/>
<text text-anchor="middle" x="418.5" y="-264.3" font-family="dubai" font-size="14.00">pure :: a → f a</text>
<text text-anchor="middle" x="418.5" y="-249.3" font-family="dubai" font-size="14.00">(&lt;*&gt;) = liftA2 id</text>
<text text-anchor="middle" x="418.5" y="-234.3" font-family="dubai" font-size="14.00">liftA2 f x y = f &lt;$&gt; x &lt;*&gt; y</text>
</g>
<!-- Functor&#45;&gt;Applicative -->
<g id="edge4" class="edge"><title>Functor&#45;&gt;Applicative</title>
<path fill="none" stroke="black" d="M383.363,-346.754C387.965,-336.113 393.268,-323.849 398.337,-312.127"/>
<polygon fill="black" stroke="black" points="401.577,-313.451 402.334,-302.884 395.152,-310.673 401.577,-313.451"/>
</g>
<!-- Applicative&#45;&gt;Traversable -->
<g id="edge10" class="edge"><title>Applicative&#45;&gt;Traversable</title>
<path fill="none" stroke="grey" stroke-dasharray="5,2" d="M340.427,-226.493C318.673,-216.182 294.7,-204.819 271.738,-193.935"/>
<polygon fill="grey" stroke="grey" points="273.191,-190.75 262.655,-189.63 270.192,-197.076 273.191,-190.75"/>
</g>
<!-- Alternative -->
<g id="node7" class="node"><title>Alternative</title>
<polygon fill="none" stroke="black" points="346,-113.5 346,-174.5 491,-174.5 491,-113.5 346,-113.5"/>
<text text-anchor="middle" x="418.5" y="-159.3" font-family="dubai" font-size="14.00">Alternative</text>
<polyline fill="none" stroke="black" points="346,-151.5 491,-151.5 "/>
<text text-anchor="middle" x="418.5" y="-136.3" font-family="dubai" font-size="14.00">empty :: f a</text>
<text text-anchor="middle" x="418.5" y="-121.3" font-family="dubai" font-size="14.00">(&lt;|&gt;) :: f a → f a → f a</text>
</g>
<!-- Applicative&#45;&gt;Alternative -->
<g id="edge6" class="edge"><title>Applicative&#45;&gt;Alternative</title>
<path fill="none" stroke="black" d="M418.5,-226.331C418.5,-213.156 418.5,-198.281 418.5,-184.888"/>
<polygon fill="black" stroke="black" points="422,-184.527 418.5,-174.527 415,-184.527 422,-184.527"/>
</g>
<!-- Monad -->
<g id="node8" class="node"><title>Monad</title>
<polygon fill="none" stroke="black" points="509.5,-106 509.5,-182 775.5,-182 775.5,-106 509.5,-106"/>
<text text-anchor="middle" x="642.5" y="-166.8" font-family="dubai" font-size="14.00">Monad</text>
<polyline fill="none" stroke="black" points="509.5,-159 775.5,-159 "/>
<text text-anchor="middle" x="642.5" y="-143.8" font-family="dubai" font-size="14.00">return :: a → m a</text>
<text text-anchor="middle" x="642.5" y="-128.8" font-family="dubai" font-size="14.00">(&gt;&gt;=) :: forall a b. m a → (a → m b) → m b</text>
<text text-anchor="middle" x="642.5" y="-113.8" font-family="dubai" font-size="14.00">(&gt;&gt;) :: forall a b. m a → m b → m b</text>
</g>
<!-- Applicative&#45;&gt;Monad -->
<g id="edge5" class="edge"><title>Applicative&#45;&gt;Monad</title>
<path fill="none" stroke="black" d="M488.454,-226.493C512.234,-213.913 538.972,-199.768 563.415,-186.837"/>
<polygon fill="black" stroke="black" points="565.104,-189.903 572.307,-182.133 561.831,-183.716 565.104,-189.903"/>
</g>
<!-- MonadPlus -->
<g id="node9" class="node"><title>MonadPlus</title>
<polygon fill="none" stroke="black" points="445,-0.5 445,-61.5 616,-61.5 616,-0.5 445,-0.5"/>
<text text-anchor="middle" x="530.5" y="-46.3" font-family="dubai" font-size="14.00">MonadPlus</text>
<polyline fill="none" stroke="black" points="445,-38.5 616,-38.5 "/>
<text text-anchor="middle" x="530.5" y="-23.3" font-family="dubai" font-size="14.00">mzero :: m a</text>
<text text-anchor="middle" x="530.5" y="-8.3" font-family="dubai" font-size="14.00">mplus :: m a → m a → m a</text>
</g>
<!-- Alternative&#45;&gt;MonadPlus -->
<g id="edge8" class="edge"><title>Alternative&#45;&gt;MonadPlus</title>
<path fill="none" stroke="black" d="M448.514,-113.254C462.198,-99.692 478.542,-83.4938 493.024,-69.1414"/>
<polygon fill="black" stroke="black" points="495.764,-71.3533 500.403,-61.8281 490.837,-66.3814 495.764,-71.3533"/>
</g>
<!-- Monad&#45;&gt;MonadPlus -->
<g id="edge7" class="edge"><title>Monad&#45;&gt;MonadPlus</title>
<path fill="none" stroke="black" d="M604.894,-105.73C592.895,-93.8381 579.629,-80.6902 567.662,-68.8299"/>
<polygon fill="black" stroke="black" points="569.968,-66.1877 560.401,-61.6343 565.04,-71.1596 569.968,-66.1877"/>
</g>
</g>
</svg>
